<svg xmlns="http://www.w3.org/2000/svg" viewBox="0 0 512 512">
  <rect fill="#10b981" width="512" height="512" rx="102"/>
  <circle cx="256" cy="227" r="120" fill="#059669"/>
  <path d="M256 107 C160 107 107 187 107 227 C107 307 187 373 256 400 C325 373 405 307 405 227 C405 187 352 107 256 107" fill="#34d399"/>
  <path d="M256 134 C182 134 139 193 139 227 C139 288 189 336 256 360 C323 336 373 288 373 227 C373 193 330 134 256 134" fill="#6ee7b7"/>
  <circle cx="213" cy="213" r="21" fill="#065f46"/>
  <circle cx="299" cy="213" r="21" fill="#065f46"/>
  <path d="M213 280 Q256 320 299 280" stroke="#065f46" stroke-width="11" fill="none" stroke-linecap="round"/>
  <circle cx="256" cy="400" r="15" fill="#34d399" opacity="0.6"/>
</svg>
